<svg width="762" height="512" viewBox="0 0 762 512" fill="none" xmlns="http://www.w3.org/2000/svg">
<path d="M255.998 166.957L278.098 234.977H349.626L291.762 277.02L313.863 345.043L255.998 303.003L198.133 345.043L220.238 277.02L162.374 234.977H233.897L255.998 166.957Z" fill="#496E2D"/>
<path d="M144.696 25.411C59.066 66.818 0 154.507 0 256C0 357.493 59.066 445.182 144.696 486.589V25.411Z" fill="#496E2D"/>
<path d="M594.495 25.402C560.839 9.128 523.081 0 483.191 0C443.301 0 405.543 9.128 371.887 25.402L349.626 256L371.887 486.598C405.543 502.872 443.301 512 483.191 512C523.081 512 560.839 502.872 594.495 486.598L616.756 256L594.495 25.402Z" fill="#FFDA44"/>
<path d="M616.756 25.411V486.589C702.386 445.182 761.452 357.493 761.452 256C761.452 154.507 702.386 66.818 616.756 25.411Z" fill="#D80027"/>
</svg>
